<svg xmlns="http://www.w3.org/2000/svg" viewBox="0 0 32 32" width="512" height="512">
  <rect width="32" height="32" rx="7" fill="#0E6E78"/>
  <path d="M23.38 21.05 L22.67 21.98 L21.87 22.84 L20.96 23.61 L19.96 24.26 L18.86 24.75 L17.7 25.06 L16.5 25.13 L15.31 24.96 L14.2 24.55 L13.21 23.92 L12.39 23.13 L11.72 22.25 L11.21 21.34 L10.8 20.46 L10.43 19.64 L10.04 18.86 L9.58 18.1 L9.06 17.3 L8.48 16.41 L7.92 15.38 L7.46 14.2 L7.19 12.9 L7.2 11.54 L7.53 10.21 L8.21 9.01 L9.18 8.05 L10.39 7.4 L11.72 7.08 L13.08 7.08 L14.38 7.35 L15.55 7.8 L16.59 8.35 L17.49 8.92 L18.3 9.45 L19.08 9.93 L19.86 10.36 L20.67 10.79 L21.51 11.27 L22.36 11.85 L23.15 12.57 L23.84 13.43 L24.37 14.43 L24.7 15.53 L24.82 16.67 L24.72 17.83 L24.42 18.96 L23.97 20.04 L23.38 21.05 Z" fill="none" stroke="#EBEEF2" stroke-width="2.3" stroke-linecap="round" stroke-linejoin="round"/>
</svg>
